if (_typeface_js && _typeface_js.loadFace) _typeface_js.loadFace({"glyphs":{"0":{"ha":1118,"x_min":0,"x_max":813,"o":"m 406 975 q 732 856 643 975 q 813 487 813 747 q 731 121 813 229 q 406 0 640 0 q 77 130 170 0 q 0 487 0 239 q 76 845 0 737 q 406 975 168 975 m 406 813 q 300 789 334 813 q 252 694 260 762 q 244 487 244 632 q 266 231 244 286 q 406 163 294 163 q 548 233 521 163 q 569 487 569 285 q 567 642 569 622 q 521 784 559 751 q 406 813 488 813 z "},"1":{"ha":475,"x_min":-81,"x_max":325,"o":"m 81 732 l 0 732 l -81 813 l 81 975 l 325 975 l 325 81 l 244 -163 l 81 0 l 81 732 z "},"2":{"ha":1277,"x_min":-244,"x_max":975,"o":"m -244 813 l 0 975 l 813 975 l 975 813 l -244 813 m 447 163 l 894 163 l 894 0 l 0 0 l 0 163 q 117 344 0 268 q 327 443 171 380 q 560 549 498 512 q 732 732 687 626 l 975 732 q 682 419 952 524 l 493 344 q 351 228 357 280 q 447 163 351 163 z "},"3":{"ha":1209,"x_min":-244,"x_max":894,"o":"m -244 813 l 0 975 l 732 975 l 894 813 l -244 813 m 595 569 q 799 392 766 553 q 813 244 813 327 q 602 13 813 53 q 351 -5 504 -5 q 262 -4 304 -5 l 93 -1 q 0 0 51 0 q 260 44 223 37 q 454 99 396 73 q 569 244 570 152 q 551 342 568 311 q 406 406 521 394 l 244 406 l 490 732 l 735 732 l 595 569 z "},"4":{"ha":1125,"x_min":0,"x_max":975,"o":"m 487 975 l 244 244 l 0 244 l 195 813 l 0 813 l 244 975 l 487 975 m 325 244 l 380 406 l 650 406 l 650 975 l 975 975 l 975 0 l 650 0 l 650 244 l 325 244 z "},"5":{"ha":1092,"x_min":-244,"x_max":975,"o":"m -244 813 l 0 975 l 975 975 l 650 813 l -244 813 m 569 244 q 551 342 568 311 q 406 406 521 394 l 0 406 l 0 732 l 244 732 l 244 569 l 569 569 q 768 471 710 569 q 813 244 813 395 q 656 52 813 117 q 390 2 537 2 q 55 110 162 2 q 0 244 0 166 q 209 148 61 178 q 344 135 277 135 q 569 244 571 135 z "},"6":{"ha":1094,"x_min":0,"x_max":975,"o":"m 0 813 l 244 975 l 975 975 l 650 813 l 0 813 m 244 244 q 303 180 244 201 q 398 166 344 166 q 544 202 493 166 q 569 244 570 219 q 551 342 567 313 q 406 406 521 394 l 244 406 l 244 244 m 0 244 l 0 732 l 244 732 l 244 569 l 569 569 q 756 465 696 569 q 813 244 813 365 q 656 52 813 117 q 390 2 537 2 q 55 110 162 2 q 0 244 0 166 z "},"7":{"ha":1140,"x_min":-244,"x_max":975,"o":"m 244 406 l 487 732 l 732 732 l 569 529 l 569 163 l 406 -163 l 244 0 l 244 406 m -244 813 l 0 975 l 975 975 l 813 813 l 81 813 l -33 732 l -163 732 l -244 813 z "},"8":{"ha":1147,"x_min":0,"x_max":813,"o":"m 244 244 q 303 180 243 201 q 398 166 345 166 q 544 202 493 166 q 569 244 570 219 q 551 342 567 313 q 406 406 521 394 q 263 342 294 394 q 244 244 244 312 m 244 732 q 263 634 244 664 q 406 569 294 581 q 551 633 521 581 q 569 732 567 662 q 482 802 570 779 q 398 811 444 811 q 303 796 346 811 q 244 732 243 775 m 738 487 q 813 244 813 398 q 656 52 813 117 q 390 2 537 2 q 55 110 162 2 q 0 244 0 166 q 75 487 0 393 q 0 732 0 580 q 198 947 0 887 q 390 974 288 974 q 752 861 630 974 q 813 732 813 806 q 738 487 813 577 z "},"9":{"ha":1144,"x_min":0,"x_max":814,"o":"m 569 732 q 417 810 569 810 q 314 794 366 810 q 244 732 244 772 l 244 686 q 299 584 244 607 q 406 569 335 569 l 569 569 l 569 732 m 813 569 q 813 537 813 559 q 814 506 814 516 q 602 102 814 217 q 0 0 412 0 q 474 163 337 39 q 574 364 574 254 q 569 406 574 394 l 244 406 q 12 583 52 406 q 0 732 0 635 q 218 945 0 882 q 422 974 317 974 q 759 865 652 974 q 813 732 813 810 l 813 569 z "}," ":{"ha":562,"x_min":0,"x_max":0,"o":""},"!":{"ha":664,"x_min":0,"x_max":325,"o":"m 0 81 l 81 163 l 244 163 l 325 81 l 244 0 l 81 0 l 0 81 m 244 406 l 81 406 l 0 487 l 0 975 l 325 975 l 325 487 l 244 406 z "},"\"":{"ha":1051,"x_min":0,"x_max":732,"o":"m 163 650 l 0 894 l 81 975 l 244 975 l 325 894 l 163 650 m 569 650 l 406 894 l 487 975 l 650 975 l 732 894 l 569 650 z "},"#":{"ha":790,"x_min":0,"x_max":650,"o":"m 390 325 l 390 406 l 268 406 l 268 325 l 390 325 m 106 325 l 106 406 l 0 406 l 0 569 l 106 569 l 106 656 l 268 656 l 268 569 l 390 569 l 390 656 l 552 656 l 552 569 l 650 569 l 650 406 l 552 406 l 552 325 l 650 325 l 650 163 l 552 163 l 552 98 l 390 98 l 390 163 l 268 163 l 268 98 l 106 98 l 106 163 l 0 163 l 0 325 l 106 325 z "},"$":{"ha":1090,"x_min":0,"x_max":813,"o":"m 163 244 l 520 244 q 589 288 563 244 q 600 327 600 307 q 487 406 600 398 l 310 421 q 44 546 116 437 q 0 732 0 612 l 81 894 l 244 894 l 244 975 l 569 975 l 569 894 l 813 894 l 650 732 l 325 732 q 245 644 245 713 q 325 569 245 569 l 363 569 q 640 518 525 569 q 813 244 813 443 l 650 81 l 487 81 l 487 0 l 244 0 l 244 81 l 0 81 l 163 244 z "},"%":{"ha":1336,"x_min":0,"x_max":1138,"o":"m 1138 975 l 244 0 l 0 0 l 894 975 l 1138 975 m 732 244 q 751 342 733 312 q 894 406 782 394 q 1038 342 1009 394 q 1056 244 1056 312 q 988 179 1057 202 q 886 164 940 164 q 790 179 833 164 q 732 244 731 201 m 81 732 q 100 829 82 799 q 244 894 131 881 q 389 829 359 881 q 406 732 406 801 q 339 667 407 688 q 236 652 292 652 q 140 667 182 652 q 81 732 80 688 z "},"&":{"ha":1068,"x_min":0,"x_max":813,"o":"m 813 894 l 650 732 l 244 732 l 244 569 l 650 569 l 487 406 l 244 406 l 244 244 l 813 244 l 569 81 l 487 81 l 487 0 l 244 0 l 244 81 l 0 81 l 0 894 l 244 894 l 244 975 l 569 975 l 569 894 l 813 894 z "},"'":{"ha":644,"x_min":0,"x_max":325,"o":"m 163 650 l 0 894 l 81 975 l 244 975 l 325 894 l 163 650 z "},"(":{"ha":817,"x_min":0,"x_max":487,"o":"m 487 0 q 0 487 0 0 q 487 975 0 975 l 487 813 q 288 717 344 813 q 244 487 244 641 q 288 259 244 333 q 487 163 345 163 l 487 0 z "},")":{"ha":765,"x_min":0,"x_max":487,"o":"m 0 0 l 0 163 q 217 296 167 163 q 244 487 244 366 q 138 782 244 720 q 0 813 85 813 l 0 975 q 487 487 487 975 q 0 0 487 0 z "},"*":{"ha":823,"x_min":0,"x_max":732,"o":"m 276 817 l 0 975 l 163 975 l 276 910 l 276 975 l 455 975 l 455 910 l 569 975 l 732 975 l 455 816 l 455 810 l 732 650 l 569 650 l 455 715 l 455 650 l 276 650 l 276 715 l 163 650 l 0 650 l 276 808 l 276 817 z "},"+":{"ha":774,"x_min":0,"x_max":650,"o":"m 244 325 l 0 325 l 0 487 l 244 487 l 244 610 l 406 610 l 406 487 l 650 487 l 650 325 l 406 325 l 406 163 l 244 163 l 244 325 z "},",":{"ha":471,"x_min":0,"x_max":325,"o":"m 163 -163 l 0 81 l 81 163 l 244 163 l 325 81 l 163 -163 z "},"-":{"ha":799,"x_min":0,"x_max":650,"o":"m 0 325 l 0 487 l 650 487 l 650 325 l 0 325 z "},".":{"ha":470,"x_min":0,"x_max":325,"o":"m 0 81 l 81 163 l 244 163 l 325 81 l 244 0 l 81 0 l 0 81 z "},"/":{"ha":1307,"x_min":0,"x_max":1138,"o":"m 1138 975 l 244 0 l 0 0 l 894 975 l 1138 975 z "},":":{"ha":451,"x_min":0,"x_max":325,"o":"m 0 81 l 81 163 l 244 163 l 325 81 l 244 0 l 81 0 l 0 81 m 0 406 l 81 487 l 244 487 l 325 406 l 244 325 l 81 325 l 0 406 z "},";":{"ha":451,"x_min":0,"x_max":325,"o":"m 0 406 l 81 487 l 244 487 l 325 406 l 244 325 l 81 325 l 0 406 m 163 -163 l 0 81 l 81 163 l 244 163 l 325 81 l 163 -163 z "},"<":{"ha":782,"x_min":0,"x_max":650,"o":"m 650 569 l 650 487 l 325 364 l 650 244 l 650 163 l 487 163 l 0 367 l 487 569 l 650 569 z "},"=":{"ha":774,"x_min":0,"x_max":650,"o":"m 0 406 l 0 569 l 650 569 l 650 406 l 0 406 m 0 163 l 0 325 l 650 325 l 650 163 l 0 163 z "},">":{"ha":754,"x_min":0,"x_max":650,"o":"m 0 569 l 163 569 l 650 367 l 163 163 l 0 163 l 0 244 l 325 364 l 0 487 l 0 569 z "},"?":{"ha":1229,"x_min":-244,"x_max":957,"o":"m 569 406 l 244 406 l 478 560 q 642 726 642 668 q 487 813 642 781 l -244 813 l 0 975 l 813 975 q 957 834 957 943 q 752 521 957 689 q 569 406 662 448 m 163 81 l 244 163 l 406 163 l 487 81 l 406 0 l 244 0 l 163 81 z "},"@":{"ha":1256,"x_min":0,"x_max":975,"o":"m 732 650 q 652 786 726 748 q 487 813 598 813 q 288 717 344 813 q 244 487 244 641 q 288 259 244 333 q 487 163 345 163 l 650 163 l 975 0 l 487 0 q 0 487 0 0 q 487 975 0 975 q 921 825 808 975 q 975 650 975 752 q 732 406 975 406 l 487 406 l 487 569 q 567 566 546 566 q 732 650 737 566 z "},"A":{"ha":1260,"x_min":0,"x_max":1138,"o":"m 813 975 l 1138 0 l 894 0 q 757 361 805 247 q 577 697 652 614 q 425 789 515 765 q 244 813 389 798 l 569 975 l 813 975 m 325 244 l 244 0 l 0 0 l 244 729 l 487 729 l 380 406 l 650 406 l 732 244 l 325 244 z "},"B":{"ha":1314,"x_min":-244,"x_max":974,"o":"m 406 569 q 744 355 576 495 q 926 102 926 203 q 813 0 926 28 l 0 0 l 0 732 l 244 732 l 244 163 l 487 163 q 620 179 563 163 q 707 262 707 204 q 406 569 707 371 m 806 403 l 670 501 q 733 667 733 602 q 487 813 733 813 l -244 813 l 0 975 l 813 975 q 974 775 974 938 q 806 403 974 595 z "},"C":{"ha":1169,"x_min":0,"x_max":975,"o":"m 0 813 l 244 975 l 975 975 l 813 732 l 650 813 l 0 813 m 0 569 l 0 732 l 244 732 l 244 569 q 314 259 244 375 q 582 115 401 115 q 813 163 684 115 q 421 -2 599 -2 q 187 87 288 -2 q 49 299 98 166 q 0 569 0 433 z "},"D":{"ha":1246,"x_min":-244,"x_max":921,"o":"m 244 0 l 0 0 l 0 732 l 244 732 l 244 163 q 591 481 480 283 q 642 647 642 571 q 487 813 642 781 l -244 813 l 0 975 l 813 975 q 921 813 921 950 q 847 544 921 698 q 475 89 706 253 q 244 0 350 0 z "},"E":{"ha":1060,"x_min":-244,"x_max":975,"o":"m -244 813 l 0 975 l 975 975 l 650 813 l -244 813 m 569 0 l 0 0 l 0 732 l 244 732 l 244 569 l 650 569 l 406 406 l 244 406 l 244 163 l 894 163 l 569 0 z "},"F":{"ha":1042,"x_min":-244,"x_max":975,"o":"m 244 406 l 244 0 l 0 0 l 0 732 l 244 732 l 244 569 l 650 569 l 406 406 l 244 406 m -244 813 l 0 975 l 975 975 l 650 813 l -244 813 z "},"G":{"ha":1209,"x_min":0,"x_max":975,"o":"m 0 813 l 244 975 l 975 975 l 813 732 l 650 813 l 0 813 m 894 487 q 794 148 886 276 q 487 0 688 0 q 224 74 336 0 q 53 288 110 149 q 0 569 0 419 l 0 732 l 244 732 l 244 569 q 487 163 244 161 q 630 280 596 163 q 650 487 646 334 l 894 487 z "},"H":{"ha":1125,"x_min":-244,"x_max":975,"o":"m 244 975 l 244 0 l 0 0 l 0 732 l -244 813 l 0 975 l 244 975 m 325 244 l 380 406 l 650 406 l 650 975 l 975 975 l 975 0 l 650 0 l 650 244 l 325 244 z "},"I":{"ha":674,"x_min":0,"x_max":325,"o":"m 325 163 l 163 -163 l 0 0 l 0 975 l 325 975 l 325 163 z "},"J":{"ha":987,"x_min":0,"x_max":650,"o":"m 325 325 l 325 975 l 650 975 l 650 650 q 546 326 650 482 q 296 91 450 182 q 0 0 142 0 q 207 123 106 34 q 325 325 325 227 z "},"K":{"ha":1317,"x_min":-244,"x_max":975,"o":"m 247 975 l 244 0 l 0 0 l 0 732 l -244 813 l 0 975 l 247 975 m 650 650 l 650 975 l 975 975 l 975 650 q 789 325 975 474 q 650 244 711 263 l 975 0 l 569 0 l 325 244 q 618 514 540 328 q 650 650 650 590 z "},"L":{"ha":940,"x_min":-244,"x_max":894,"o":"m 0 813 l -244 813 l 0 975 l 244 975 l 244 163 l 894 163 l 569 0 l 0 0 l 0 813 z "},"M":{"ha":1450,"x_min":-244,"x_max":1300,"o":"m 0 725 l 244 725 l 244 0 l 0 0 l 0 725 m 650 0 l 406 487 q 321 652 342 615 q 242 751 279 724 q 56 813 158 813 l -244 813 l 0 975 l 374 975 l 652 344 l 813 732 l 975 650 l 650 0 m 1056 732 l 894 813 l 1056 975 l 1300 975 l 1300 0 l 1056 0 l 1056 732 z "},"N":{"ha":1125,"x_min":-244,"x_max":975,"o":"m 0 725 l 244 725 l 244 0 l 0 0 l 0 725 m 406 487 q 321 652 342 616 q 242 751 279 724 q 56 813 158 813 l -244 813 l 0 975 l 374 975 l 652 344 q 710 240 698 240 q 732 354 732 240 l 732 975 l 975 975 l 975 0 l 732 -163 l 406 487 z "},"O":{"ha":1253,"x_min":0,"x_max":975,"o":"m 487 975 q 975 487 975 975 q 487 0 975 0 q 0 487 0 0 q 487 975 0 975 m 487 813 q 288 717 344 813 q 244 487 244 641 q 288 259 244 333 q 487 163 345 163 q 687 258 630 163 q 732 487 732 333 q 687 717 732 643 q 487 813 631 813 z "},"P":{"ha":1305,"x_min":-244,"x_max":1003,"o":"m 244 0 l 0 0 l 0 732 l 244 732 l 244 0 m 732 244 l 406 244 q 668 502 598 368 q 701 619 701 563 q 487 813 701 771 l -244 813 l 0 975 l 813 975 q 1003 710 1003 932 q 929 440 1003 573 q 732 244 851 298 z "},"Q":{"ha":1260,"x_min":0,"x_max":975,"o":"m 487 0 q 0 487 0 0 q 487 975 0 975 q 975 487 975 975 l 975 81 l 861 -163 l 732 0 l 732 487 q 687 717 732 643 q 487 813 631 813 q 288 717 344 813 q 244 487 244 641 q 288 259 244 333 q 487 163 345 163 l 650 163 l 650 0 l 487 0 z "},"R":{"ha":1340,"x_min":-244,"x_max":1056,"o":"m 244 0 l 0 0 l 0 732 l 244 732 l 244 0 m 406 244 q 668 502 598 368 q 701 619 701 563 q 487 813 701 771 l -244 813 l 0 975 l 813 975 q 1003 710 1003 932 q 929 440 1003 573 q 732 244 851 298 l 1056 0 l 650 0 l 406 244 z "},"S":{"ha":1288,"x_min":-244,"x_max":1056,"o":"m 59 260 q 217 163 92 163 l 529 163 q 629 210 629 163 q 344 490 629 283 q 0 732 229 571 l 244 732 q 737 391 536 563 q 951 99 951 208 q 853 0 951 29 l -244 0 l 59 260 m 1056 975 l 894 732 l 751 813 l 0 813 q 44 932 0 888 q 163 975 87 975 l 1056 975 z "},"T":{"ha":1193,"x_min":-244,"x_max":975,"o":"m -244 813 l 0 975 l 975 975 l 894 813 l 81 813 l -33 732 l -163 732 l -244 813 m 569 163 l 406 -163 l 244 0 l 244 732 l 569 732 l 569 163 z "},"U":{"ha":1116,"x_min":-244,"x_max":975,"o":"m 975 487 q 487 0 975 0 q 0 487 0 0 l 0 732 l -244 813 l 0 975 l 244 975 l 244 487 q 288 259 244 333 q 487 163 345 163 q 629 233 602 163 q 650 487 650 285 l 650 975 l 975 975 l 975 487 z "},"V":{"ha":1392,"x_min":-163,"x_max":1138,"o":"m 569 -163 q 375 249 446 113 q 136 635 248 495 q -163 813 -4 808 l 244 975 l 579 309 l 894 975 l 1138 975 l 569 -163 z "},"W":{"ha":1879,"x_min":-163,"x_max":1625,"o":"m 569 -163 q 375 249 446 113 q 136 635 248 495 q -163 813 -4 808 l 244 975 l 579 309 l 894 975 l 1138 975 l 569 -163 m 1066 309 l 1382 975 l 1625 975 l 1056 -163 l 813 163 l 1066 309 z "},"X":{"ha":1384,"x_min":-163,"x_max":1300,"o":"m 717 442 q 1117 185 923 231 q 1300 163 1205 164 l 894 0 l 569 366 l 244 0 l 0 0 l 414 440 q 444 490 444 466 q 419 527 444 515 q -163 813 144 806 l 244 975 l 569 602 l 894 975 l 1138 975 l 717 525 q 690 481 690 506 q 717 442 690 460 z "},"Y":{"ha":1333,"x_min":-163,"x_max":1138,"o":"m 732 529 l 732 163 l 569 -163 l 406 0 l 406 529 q 15 785 207 729 q -163 813 -75 811 l 244 975 l 569 602 l 894 975 l 1138 975 l 732 529 z "},"Z":{"ha":1270,"x_min":-244,"x_max":975,"o":"m -244 813 l 0 975 l 975 975 l 975 813 l -244 813 m 447 163 l 894 163 l 894 0 l 122 0 q 0 113 0 31 q 301 476 0 260 q 732 732 510 626 l 975 732 q 631 490 860 652 q 346 210 346 283 q 447 163 346 163 z "},"[":{"ha":808,"x_min":0,"x_max":487,"o":"m 0 813 l 0 975 l 487 975 l 487 813 l 0 813 m 244 732 l 244 163 l 487 163 l 487 0 l 0 0 l 0 732 l 244 732 z "},"\\":{"ha":1125,"x_min":-81,"x_max":1056,"o":"m -81 975 l 163 975 l 1056 0 l 813 0 l -81 975 z "},"]":{"ha":630,"x_min":0,"x_max":487,"o":"m 487 813 l 0 813 l 0 975 l 487 975 l 487 813 m 244 732 l 487 732 l 487 0 l 0 0 l 0 163 l 244 163 l 244 732 z "},"^":{"ha":880,"x_min":0,"x_max":732,"o":"m 429 975 l 732 650 l 569 650 l 351 884 l 163 650 l 0 650 l 263 975 l 429 975 z "},"_":{"ha":799,"x_min":0,"x_max":650,"o":"m 0 325 l 0 487 l 650 487 l 650 325 l 0 325 z "},"`":{"ha":686,"x_min":0,"x_max":325,"o":"m 325 650 l 0 894 l 81 975 l 244 975 l 325 894 l 325 650 z "},"a":{"ha":1260,"x_min":0,"x_max":1138,"o":"m 813 975 l 1138 0 l 894 0 q 757 361 805 247 q 577 697 652 614 q 425 789 515 765 q 244 813 389 798 l 569 975 l 813 975 m 325 244 l 244 0 l 0 0 l 244 729 l 487 729 l 380 406 l 650 406 l 732 244 l 325 244 z "},"b":{"ha":1090,"x_min":-244,"x_max":974,"o":"m 406 569 q 744 355 576 495 q 926 102 926 203 q 813 0 926 28 l 0 0 l 0 732 l 244 732 l 244 163 l 487 163 q 620 179 563 163 q 707 262 707 204 q 406 569 707 371 m 806 403 l 670 501 q 733 667 733 602 q 487 813 733 813 l -244 813 l 0 975 l 813 975 q 974 775 974 938 q 806 403 974 595 z "},"c":{"ha":1169,"x_min":0,"x_max":975,"o":"m 0 813 l 244 975 l 975 975 l 813 732 l 650 813 l 0 813 m 0 569 l 0 732 l 244 732 l 244 569 q 314 259 244 375 q 582 115 401 115 q 813 163 684 115 q 421 -2 599 -2 q 187 87 288 -2 q 49 299 98 166 q 0 569 0 433 z "},"d":{"ha":1021,"x_min":-244,"x_max":921,"o":"m 244 0 l 0 0 l 0 732 l 244 732 l 244 163 q 591 481 480 283 q 642 647 642 571 q 487 813 642 781 l -244 813 l 0 975 l 813 975 q 921 813 921 950 q 847 544 921 698 q 475 89 706 253 q 244 0 350 0 z "},"e":{"ha":1060,"x_min":-244,"x_max":975,"o":"m -244 813 l 0 975 l 975 975 l 650 813 l -244 813 m 569 0 l 0 0 l 0 732 l 244 732 l 244 569 l 650 569 l 406 406 l 244 406 l 244 163 l 894 163 l 569 0 z "},"f":{"ha":1042,"x_min":-244,"x_max":975,"o":"m 244 406 l 244 0 l 0 0 l 0 732 l 244 732 l 244 569 l 650 569 l 406 406 l 244 406 m -244 813 l 0 975 l 975 975 l 650 813 l -244 813 z "},"g":{"ha":1007,"x_min":0,"x_max":975,"o":"m 0 813 l 244 975 l 975 975 l 813 732 l 650 813 l 0 813 m 894 487 q 794 148 886 276 q 487 0 688 0 q 224 74 336 0 q 53 288 110 149 q 0 569 0 419 l 0 732 l 244 732 l 244 569 q 487 163 244 161 q 630 280 596 163 q 650 487 646 334 l 894 487 z "},"h":{"ha":1125,"x_min":-244,"x_max":975,"o":"m 244 975 l 244 0 l 0 0 l 0 732 l -244 813 l 0 975 l 244 975 m 325 244 l 380 406 l 650 406 l 650 975 l 975 975 l 975 0 l 650 0 l 650 244 l 325 244 z "},"i":{"ha":467,"x_min":0,"x_max":325,"o":"m 325 163 l 163 -163 l 0 0 l 0 975 l 325 975 l 325 163 z "},"j":{"ha":783,"x_min":0,"x_max":650,"o":"m 325 325 l 325 975 l 650 975 l 650 650 q 546 326 650 482 q 296 91 450 182 q 0 0 142 0 q 207 123 106 34 q 325 325 325 227 z "},"k":{"ha":1094,"x_min":-244,"x_max":975,"o":"m 244 975 l 244 0 l 0 0 l 0 732 l -244 813 l 0 975 l 244 975 m 650 650 l 650 975 l 975 975 l 975 650 q 789 325 975 474 q 650 244 711 263 l 975 0 l 569 0 l 325 244 q 618 514 540 328 q 650 650 650 590 z "},"l":{"ha":940,"x_min":-244,"x_max":894,"o":"m 0 813 l -244 813 l 0 975 l 244 975 l 244 163 l 894 163 l 569 0 l 0 0 l 0 813 z "},"m":{"ha":1450,"x_min":-244,"x_max":1300,"o":"m 0 725 l 244 725 l 244 0 l 0 0 l 0 725 m 650 0 l 406 487 q 321 652 342 615 q 242 751 279 724 q 56 813 158 813 l -244 813 l 0 975 l 374 975 l 652 344 l 813 732 l 975 650 l 650 0 m 1056 732 l 894 813 l 1056 975 l 1300 975 l 1300 0 l 1056 0 l 1056 732 z "},"n":{"ha":1125,"x_min":-244,"x_max":975,"o":"m 0 725 l 244 725 l 244 0 l 0 0 l 0 725 m 406 487 q 321 652 342 616 q 242 751 279 724 q 56 813 158 813 l -244 813 l 0 975 l 374 975 l 652 344 q 710 240 698 240 q 732 354 732 240 l 732 975 l 975 975 l 975 0 l 732 -163 l 406 487 z "},"o":{"ha":1110,"x_min":0,"x_max":975,"o":"m 487 975 q 975 487 975 975 q 487 0 975 0 q 0 487 0 0 q 487 975 0 975 m 487 813 q 288 717 344 813 q 244 487 244 641 q 288 259 244 333 q 487 163 345 163 q 687 258 630 163 q 732 487 732 333 q 687 717 732 643 q 487 813 631 813 z "},"p":{"ha":1100,"x_min":-244,"x_max":1003,"o":"m 244 0 l 0 0 l 0 732 l 244 732 l 244 0 m 732 244 l 406 244 q 668 502 598 368 q 701 619 701 563 q 487 813 701 771 l -244 813 l 0 975 l 813 975 q 1003 710 1003 932 q 929 440 1003 573 q 732 244 851 298 z "},"q":{"ha":1117,"x_min":0,"x_max":975,"o":"m 487 0 q 0 487 0 0 q 487 975 0 975 q 975 487 975 975 l 975 81 l 861 -163 l 732 0 l 732 487 q 687 717 732 643 q 487 813 631 813 q 288 717 344 813 q 244 487 244 641 q 288 259 244 333 q 487 163 345 163 l 650 163 l 650 0 l 487 0 z "},"r":{"ha":1129,"x_min":-244,"x_max":1056,"o":"m 244 0 l 0 0 l 0 732 l 244 732 l 244 0 m 406 244 q 668 502 598 368 q 701 619 701 563 q 487 813 701 771 l -244 813 l 0 975 l 813 975 q 1003 710 1003 932 q 929 440 1003 573 q 732 244 851 298 l 1056 0 l 650 0 l 406 244 z "},"s":{"ha":1288,"x_min":-244,"x_max":1056,"o":"m 59 260 q 217 163 92 163 l 529 163 q 629 210 629 163 q 344 490 629 283 q 0 732 229 571 l 244 732 q 737 391 536 563 q 951 99 951 208 q 853 0 951 29 l -244 0 l 59 260 m 1056 975 l 894 732 l 751 813 l 0 813 q 44 932 0 888 q 163 975 87 975 l 1056 975 z "},"t":{"ha":1193,"x_min":-244,"x_max":975,"o":"m -244 813 l 0 975 l 975 975 l 894 813 l 81 813 l -33 732 l -163 732 l -244 813 m 569 163 l 406 -163 l 244 0 l 244 732 l 569 732 l 569 163 z "},"u":{"ha":1116,"x_min":-244,"x_max":975,"o":"m 975 487 q 487 0 975 0 q 0 487 0 0 l 0 732 l -244 813 l 0 975 l 244 975 l 244 487 q 288 259 244 333 q 487 163 345 163 q 629 233 602 163 q 650 487 650 285 l 650 975 l 975 975 l 975 487 z "},"v":{"ha":1392,"x_min":-163,"x_max":1138,"o":"m 569 -163 q 375 249 446 113 q 136 635 248 495 q -163 813 -4 808 l 244 975 l 579 309 l 894 975 l 1138 975 l 569 -163 z "},"w":{"ha":1879,"x_min":-163,"x_max":1625,"o":"m 569 -163 q 375 249 446 113 q 136 635 248 495 q -163 813 -4 808 l 244 975 l 579 309 l 894 975 l 1138 975 l 569 -163 m 1066 309 l 1382 975 l 1625 975 l 1056 -163 l 813 163 l 1066 309 z "},"x":{"ha":1382,"x_min":-163,"x_max":1300,"o":"m 717 442 q 1117 185 923 231 q 1300 163 1205 164 l 894 0 l 569 366 l 244 0 l 0 0 l 414 440 q 444 490 444 466 q 419 527 444 515 q -163 813 144 806 l 244 975 l 569 602 l 894 975 l 1138 975 l 717 525 q 690 481 690 506 q 717 442 690 460 z "},"y":{"ha":1333,"x_min":-163,"x_max":1138,"o":"m 732 529 l 732 163 l 569 -163 l 406 0 l 406 529 q 15 785 207 729 q -163 813 -75 811 l 244 975 l 569 602 l 894 975 l 1138 975 l 732 529 z "},"z":{"ha":1046,"x_min":-244,"x_max":975,"o":"m -244 813 l 0 975 l 975 975 l 975 813 l -244 813 m 447 163 l 894 163 l 894 0 l 122 0 q 0 113 0 31 q 301 476 0 260 q 732 732 510 626 l 975 732 q 631 490 860 652 q 346 210 346 283 q 447 163 346 163 z "},"{":{"ha":808,"x_min":0,"x_max":487,"o":"m 0 813 l 0 975 l 487 975 l 487 813 l 0 813 m 244 732 l 244 163 l 487 163 l 487 0 l 0 0 l 0 732 l 244 732 z "},"|":{"ha":384,"x_min":0,"x_max":244,"o":"m 244 975 l 244 -163 l 0 -163 l 0 975 l 244 975 z "},"}":{"ha":630,"x_min":0,"x_max":487,"o":"m 487 813 l 0 813 l 0 975 l 487 975 l 487 813 m 244 732 l 487 732 l 487 0 l 0 0 l 0 163 l 244 163 l 244 732 z "},"~":{"ha":1050,"x_min":0,"x_max":732,"o":"m 383 881 q 478 848 437 848 q 569 975 572 848 l 732 975 q 661 752 725 847 q 538 689 618 689 q 383 744 470 689 q 256 791 311 791 q 163 650 163 791 l 0 650 q 200 938 0 938 q 383 881 289 938 z "}}}
